<svg xmlns="http://www.w3.org/2000/svg" width="57.086" height="62.277" viewBox="0 0 57.086 62.277">
  <path id="Path_51060" data-name="Path 51060" d="M890.52-3013.347a50.649,50.649,0,0,0-50.371,46.079,158.608,158.608,0,0,1,16.454-18.964,1.289,1.289,0,0,1,1.835-.019,1.3,1.3,0,0,1,.018,1.835c-1.01,1.027-2.034,2.093-3.065,3.173-.589.615-1.165,1.228-1.731,1.829-.1.112-.208.223-.311.338-8.283,8.869-14.2,16.589-18.5,26.176a1.3,1.3,0,0,0,.651,1.714,1.291,1.291,0,0,0,.532.116,1.3,1.3,0,0,0,1.186-.766,71.123,71.123,0,0,1,5.306-9.658,50.562,50.562,0,0,0,43.263-26.587,1.307,1.307,0,0,0-.028-1.282,1.312,1.312,0,0,0-1.116-.63h-4.806l8.618-4.925a1.3,1.3,0,0,0,.584-.7,50.427,50.427,0,0,0,2.782-16.428,1.3,1.3,0,0,0-1.3-1.3" transform="translate(-834.732 3013.347)" fill="#dab188"/>
</svg>
